<?xml version="1.0" encoding="UTF-8" standalone="no"?>
<!-- Created with Inkscape (http://www.inkscape.org/) -->

<svg
   width="120"
   height="120"
   viewBox="0 0 120 120"
   version="1.1"
   id="svg1"
   xml:space="preserve"
   sodipodi:docname="logo.svg"
   inkscape:version="1.4.3 (0d15f75042, 2025-12-25)"
   inkscape:export-filename="logofinal.svg"
   inkscape:export-xdpi="96"
   inkscape:export-ydpi="96"
   xmlns:inkscape="http://www.inkscape.org/namespaces/inkscape"
   xmlns:sodipodi="http://sodipodi.sourceforge.net/DTD/sodipodi-0.dtd"
   xmlns="http://www.w3.org/2000/svg"
   xmlns:svg="http://www.w3.org/2000/svg"><sodipodi:namedview
     id="namedview1"
     pagecolor="#ffffff"
     bordercolor="#000000"
     borderopacity="0.25"
     inkscape:showpageshadow="2"
     inkscape:pageopacity="0.0"
     inkscape:pagecheckerboard="0"
     inkscape:deskcolor="#d1d1d1"
     inkscape:document-units="px"
     inkscape:zoom="4"
     inkscape:cx="104.25"
     inkscape:cy="69.125"
     inkscape:window-width="1914"
     inkscape:window-height="1028"
     inkscape:window-x="0"
     inkscape:window-y="0"
     inkscape:window-maximized="1"
     inkscape:current-layer="layer1"
     showguides="true"><sodipodi:guide
       position="60.065089,70.622168"
       orientation="0,-1"
       id="guide23"
       inkscape:locked="false" /><sodipodi:guide
       position="62.770724,49.044732"
       orientation="0,-1"
       id="guide24"
       inkscape:locked="false" /><sodipodi:guide
       position="63.65625,17.5"
       orientation="-1,0"
       id="guide25"
       inkscape:locked="false"
       inkscape:label=""
       inkscape:color="rgb(0,134,229)" /><sodipodi:guide
       position="60.634406,65.066642"
       orientation="0,-1"
       id="guide26"
       inkscape:locked="false" /><sodipodi:guide
       position="66.689008,55.167147"
       orientation="0,-1"
       id="guide27"
       inkscape:locked="false" /><sodipodi:guide
       position="71.443974,82.497152"
       orientation="0,-1"
       id="guide10"
       inkscape:locked="false" /><sodipodi:guide
       position="80.034012,37.242318"
       orientation="0,-1"
       id="guide11"
       inkscape:locked="false" /><sodipodi:guide
       position="41.169328,54.736663"
       orientation="1,0"
       id="guide12"
       inkscape:locked="false" /><sodipodi:guide
       position="79.614985,47.403704"
       orientation="1,0"
       id="guide13"
       inkscape:locked="false" /><sodipodi:guide
       position="66.379649,35.72171"
       orientation="1,0"
       id="guide28"
       inkscape:locked="false" /><sodipodi:guide
       position="62.375,18.34375"
       orientation="0,-1"
       id="guide29"
       inkscape:locked="false" /><sodipodi:guide
       position="76.84375,15.75"
       orientation="0,-1"
       id="guide30"
       inkscape:locked="false" /><sodipodi:guide
       position="111.4375,43.65625"
       orientation="1,0"
       id="guide31"
       inkscape:locked="false" /><sodipodi:guide
       position="108.78125,46.3125"
       orientation="1,0"
       id="guide32"
       inkscape:locked="false" /><inkscape:page
       x="0"
       y="0"
       width="120"
       height="120"
       id="page2"
       margin="0"
       bleed="0" /></sodipodi:namedview><defs
     id="defs1"><inkscape:path-effect
       effect="fillet_chamfer"
       id="path-effect25"
       is_visible="true"
       lpeversion="1"
       nodesatellites_param="F,0,1,1,0,6.5592776,0,1 @ F,0,0,1,0,3.2846055,0,1 @ F,0,0,1,0,3.698835,0,1 @ F,0,0,1,0,0,0,1 @ F,0,0,1,0,0,0,1 @ F,0,1,1,0,6.5592776,0,1 @ F,0,0,1,0,6.5592776,0,1 @ F,0,1,1,0,6.5592776,0,1"
       radius="0"
       unit="px"
       method="auto"
       mode="F"
       chamfer_steps="1"
       flexible="false"
       use_knot_distance="true"
       apply_no_radius="true"
       apply_with_radius="true"
       only_selected="false"
       hide_knots="false" /><inkscape:path-effect
       effect="fillet_chamfer"
       id="path-effect18"
       is_visible="true"
       lpeversion="1"
       nodesatellites_param="F,0,1,1,0,6.5592776,0,1 @ F,0,0,1,0,3.2846055,0,1 @ F,0,0,1,0,3.698835,0,1 @ F,0,0,1,0,0,0,1 @ F,0,0,1,0,0,0,1 @ F,0,1,1,0,6.5592776,0,1 @ F,0,0,1,0,6.5592776,0,1 @ F,0,1,1,0,6.5592776,0,1"
       radius="0"
       unit="px"
       method="auto"
       mode="F"
       chamfer_steps="1"
       flexible="false"
       use_knot_distance="true"
       apply_no_radius="true"
       apply_with_radius="true"
       only_selected="false"
       hide_knots="false" /><inkscape:path-effect
       effect="fillet_chamfer"
       id="path-effect4"
       is_visible="true"
       lpeversion="1"
       nodesatellites_param="F,0,1,1,0,6.5592776,0,1 @ F,0,0,1,0,3.2846055,0,1 @ F,0,0,1,0,3.698835,0,1 @ F,0,0,1,0,0,0,1 @ F,0,0,1,0,0,0,1 @ F,0,1,1,0,6.5592776,0,1 @ F,0,0,1,0,6.5592776,0,1 @ F,0,1,1,0,6.5592776,0,1"
       radius="0"
       unit="px"
       method="auto"
       mode="F"
       chamfer_steps="1"
       flexible="false"
       use_knot_distance="true"
       apply_no_radius="true"
       apply_with_radius="true"
       only_selected="false"
       hide_knots="false" /><inkscape:path-effect
       effect="fillet_chamfer"
       id="path-effect5"
       is_visible="true"
       lpeversion="1"
       nodesatellites_param="F,0,1,1,0,6.5592776,0,1 @ F,0,0,1,0,3.2846055,0,1 @ F,0,0,1,0,3.698835,0,1 @ F,0,0,1,0,0,0,1 @ F,0,0,1,0,0,0,1 @ F,0,1,1,0,6.5592776,0,1 @ F,0,0,1,0,6.5592776,0,1 @ F,0,1,1,0,6.5592776,0,1"
       radius="0"
       unit="px"
       method="auto"
       mode="F"
       chamfer_steps="1"
       flexible="false"
       use_knot_distance="true"
       apply_no_radius="true"
       apply_with_radius="true"
       only_selected="false"
       hide_knots="false" /><linearGradient
       id="swatch7"
       inkscape:swatch="solid"><stop
         style="stop-color:#000000;stop-opacity:1;"
         offset="0"
         id="stop8" /></linearGradient><linearGradient
       id="swatch3"
       inkscape:swatch="solid"><stop
         style="stop-color:#000000;stop-opacity:1;"
         offset="0"
         id="stop3" /></linearGradient></defs><g
     inkscape:label="Capa 1"
     inkscape:groupmode="layer"
     id="layer1"><g
       id="g1"
       transform="matrix(0.11752398,0,0,0.11752397,-0.31867037,-0.04702009)"><path
         style="display:none;fill:#000000;fill-opacity:1;fill-rule:evenodd;stroke:#ffffff;stroke-width:8.50847;stroke-dasharray:none;stroke-opacity:1;paint-order:stroke fill markers"
         d="m 701.81556,703.36571 34.90048,-0.15244 a 5.4046152,5.4046152 31.038497 0 1 4.81001,2.89454 l 2.57461,4.9096 c 0.94873,1.80914 3.37385,3.27384 5.41668,3.27447 4.58628,0.001 12.84422,0.0134 21.35515,0.0723 5.29195,0.0366 10.76922,-0.0384 15.46805,-0.0147 2.01295,0.0101 3.8869,0.0326 5.57096,0.0465 3.62051,0.03 6.56199,2.84283 6.57054,6.46541 l 0.11238,47.62963 a 6.5438187,6.5438187 134.9324 0 1 -6.5438,6.55926 h -90.29007 a 6.5542385,6.5542385 45.022017 0 1 -6.55424,-6.55928 l 0.045,-58.53738 a 6.5930558,6.5930558 134.89689 0 1 6.56426,-6.58793 z"
         id="path2"
         sodipodi:nodetypes="cccsscccc"
         inkscape:path-effect="#path-effect5"
         inkscape:original-d="m 695.25634,703.39436 44.74427,-0.19544 5.81787,11.09423 c 0,0 12.24027,-0.0176 25.05401,0.071 5.29195,0.0366 10.76922,-0.0384 15.46805,-0.0147 5.33312,0.0269 9.69053,0.14014 12.12602,-0.0473 l 0.14334,60.74815 H 695.20127 Z"
         transform="matrix(1.009203,0,0,1.1903819,-134.76019,-270.78617)" /><path
         style="display:none;fill:#000000;fill-opacity:1;fill-rule:evenodd;stroke:#ffffff;stroke-width:8.50847;stroke-dasharray:none;stroke-opacity:1;paint-order:stroke fill markers"
         d="m 701.81556,703.36571 34.90048,-0.15244 a 5.4046152,5.4046152 31.038497 0 1 4.81001,2.89454 l 2.57461,4.9096 c 0.94873,1.80914 3.37385,3.27384 5.41668,3.27447 4.58628,0.001 12.84422,0.0134 21.35515,0.0723 5.29195,0.0366 10.76922,-0.0384 15.46805,-0.0147 2.01295,0.0101 3.8869,0.0326 5.57096,0.0465 3.62051,0.03 6.56199,2.84283 6.57054,6.46541 l 0.11238,47.62963 a 6.5438187,6.5438187 134.9324 0 1 -6.5438,6.55926 h -90.29007 a 6.5542385,6.5542385 45.022017 0 1 -6.55424,-6.55928 l 0.045,-58.53738 a 6.5930558,6.5930558 134.89689 0 1 6.56426,-6.58793 z"
         id="path3"
         sodipodi:nodetypes="cccsscccc"
         transform="matrix(1.498582,0,0,1.7132154,-506.98522,-665.93565)"
         inkscape:original-d="m 695.25634,703.39436 44.74427,-0.19544 5.81787,11.09423 c 0,0 12.24027,-0.0176 25.05401,0.071 5.29195,0.0366 10.76922,-0.0384 15.46805,-0.0147 5.33312,0.0269 9.69053,0.14014 12.12602,-0.0473 l 0.14334,60.74815 H 695.20127 Z"
         inkscape:path-effect="#path-effect4" /><path
         style="display:none;fill:#000000;fill-opacity:1;fill-rule:evenodd;stroke:none;stroke-width:0.799837;stroke-dasharray:none;stroke-opacity:1;paint-order:markers fill stroke"
         d="m 365.38126,411.82982 138.38255,-87.24035 a 23.992458,23.992458 179.95937 0 1 25.56143,-0.0181 l 139.21513,87.48957 a 27.330455,27.330455 61.070633 0 1 12.788,23.13738 l 0.0158,151.53253 a 28.64989,28.64989 117.78838 0 1 -12.45653,23.63753 l -139.84669,95.8169 a 21.985845,21.985845 0.06738089 0 1 -24.89611,-0.0293 L 364.8977,610.26778 a 28.707299,28.707299 62.2991 0 1 -12.42583,-23.6668 l 0.12221,-151.61565 a 27.399015,27.399015 118.90883 0 1 12.78718,-23.15551 z"
         id="path10"
         sodipodi:nodetypes="ccccccc"
         transform="matrix(0.45361321,0,0,0.46138009,283.46375,274.42669)"
         inkscape:label="centro" /><path
         style="display:none;fill:#000000;fill-opacity:1;stroke:none;stroke-width:0.799837;stroke-dasharray:none;stroke-opacity:1;paint-order:markers fill stroke"
         d="m 367.43474,410.48848 135.96088,-86.14255 a 27.46682,27.46682 0.2252834 0 1 29.58264,0.11632 l 133.59438,86.12287 a 32.053992,32.053992 61.515382 0 1 14.68597,27.06552 l -0.57733,148.64495 a 32.541922,32.541922 118.56651 0 1 -14.77545,27.13784 l -133.40038,86.92785 a 27.145579,27.145579 179.80004 0 1 -29.48108,0.10289 L 367.38006,613.41683 A 32.123094,32.123094 61.3448 0 1 352.60625,586.38175 V 437.43781 a 31.903133,31.903133 118.82117 0 1 14.82849,-26.94933 z"
         id="path8"
         sodipodi:nodetypes="ccccccc" /><path
         id="path7"
         style="display:none;fill:#000000;fill-opacity:1;stroke:#000000;stroke-width:0.799837;stroke-dasharray:none;stroke-opacity:1;paint-order:markers fill stroke"
         inkscape:label="arriba"
         d="m 516.46972,320.13207 a 27.46682,27.46682 0 0 0 -13.07912,4.22121 L 367.43098,410.4893 a 31.903133,31.903133 0 0 0 -14.8241,26.95594 v 148.93903 a 32.123094,32.123094 0 0 0 14.77425,27.03903 l 135.64386,87.03345 a 27.145579,27.145579 0 0 0 29.48201,-0.0997 l 133.4003,-86.91711 a 32.541922,32.541922 0 0 0 14.77425,-27.13874 l 0.58166,-148.65651 a 32.053992,32.053992 0 0 0 -14.69115,-27.05565 l -133.59973,-86.1194 a 27.46682,27.46682 0 0 0 -16.50261,-4.33755 z m 1.29627,102.35612 a 10.883296,11.069642 0 0 1 5.80002,1.69513 l 63.152,40.36743 a 12.397455,12.609728 0 0 1 5.80002,10.66936 l 0.0166,69.91593 a 12.995969,13.218489 0 0 1 -5.65044,10.90203 l -63.43453,44.20641 a 9.9730697,10.143831 0 0 1 -11.30088,-0.0166 l -63.16862,-44.23965 a 13.02201,13.244976 0 0 1 -5.63383,-10.91865 l 0.0665,-69.94916 a 12.428555,12.64136 0 0 1 5.80001,-10.68598 l 62.76977,-40.2511 a 10.883296,11.069642 0 0 1 5.78339,-1.69513 z" /><path
         id="path4"
         style="display:none;fill:#000000;fill-opacity:1;stroke:#000000;stroke-width:0.799837;stroke-dasharray:none;stroke-opacity:1;paint-order:markers fill stroke"
         inkscape:label="arriba2"
         d="m 516.46972,320.13207 a 27.46682,27.46682 0 0 0 -13.07912,4.22121 L 367.43098,410.4893 a 31.903133,31.903133 0 0 0 -14.8241,26.95594 v 148.93903 a 32.123094,32.123094 0 0 0 14.77425,27.03903 l 135.64386,87.03345 a 27.145579,27.145579 0 0 0 29.48201,-0.0997 l 133.4003,-86.91711 a 32.541922,32.541922 0 0 0 14.77425,-27.13874 l 0.58166,-148.65651 a 32.053992,32.053992 0 0 0 -14.69115,-27.05565 l -133.59973,-86.1194 a 27.46682,27.46682 0 0 0 -16.50261,-4.33755 z m 1.29627,102.35612 a 10.883296,11.069642 0 0 1 5.80002,1.69513 l 63.152,40.36743 a 12.397455,12.609728 0 0 1 5.80002,10.66936 l 0.0166,69.91593 a 12.995969,13.218489 0 0 1 -5.65044,10.90203 l -63.43453,44.20641 a 9.9730697,10.143831 0 0 1 -11.30088,-0.0166 l -63.16862,-44.23965 a 13.02201,13.244976 0 0 1 -5.63383,-10.91865 l 0.0665,-69.94916 a 12.428555,12.64136 0 0 1 5.80001,-10.68598 l 62.76977,-40.2511 a 10.883296,11.069642 0 0 1 5.78339,-1.69513 z" /><path
         id="path5"
         style="display:none;fill:#000000;fill-opacity:1;stroke:#000000;stroke-width:0.799837;stroke-dasharray:none;stroke-opacity:1;paint-order:markers fill stroke"
         inkscape:label="arriba"
         d="m 516.46972,320.13207 a 27.46682,27.46682 0 0 0 -13.07912,4.22121 L 367.43098,410.4893 a 31.903133,31.903133 0 0 0 -14.8241,26.95594 v 148.93903 a 32.123094,32.123094 0 0 0 14.77425,27.03903 l 135.64386,87.03345 a 27.145579,27.145579 0 0 0 29.48201,-0.0997 l 68.33712,-44.52217 h -64.71419 a 9.5042194,10.693258 0 0 1 -9.48942,-10.71922 l 0.0831,-47.16458 -3.27394,2.29342 a 9.9730697,10.143831 0 0 1 -11.30088,-0.0166 l -63.16862,-44.23965 a 13.02201,13.244976 0 0 1 -5.63383,-10.91865 l 0.0665,-69.94916 a 12.428555,12.64136 0 0 1 5.80001,-10.68598 l 62.76977,-40.2511 a 10.883296,11.069642 0 0 1 5.78339,-1.69513 10.883296,11.069642 0 0 1 5.80002,1.69513 l 63.152,40.36743 a 12.397455,12.609728 0 0 1 5.80002,10.66936 l 0.0166,69.91593 a 12.995969,13.218489 0 0 1 -5.65044,10.90203 l -0.76447,0.53181 c 4.70955,-0.0135 8.79956,-0.0156 11.79945,-0.0166 2.96699,-10e-4 6.48284,-2.39498 7.86077,-5.35131 l 3.73926,-8.02695 a 7.8496442,8.8316849 0 0 1 6.97996,-4.7364 l 50.68779,0.24929 a 9.5757311,10.773716 0 0 1 9.53928,10.76907 l 0.0332,52.20013 a 32.541922,32.541922 0 0 0 3.92207,-15.35591 l 0.58166,-148.65651 A 32.053992,32.053992 0 0 0 666.57203,410.58908 L 532.9723,324.46968 a 27.46682,27.46682 0 0 0 -16.50261,-4.33755 z" /><path
         style="display:none;fill:#000000;fill-opacity:1;fill-rule:nonzero;stroke:none;stroke-width:12.9352;stroke-linecap:round;stroke-linejoin:miter;stroke-dasharray:none;stroke-opacity:1;paint-order:normal"
         d="m 701.81447,703.27175 29.42998,-0.5502 a 5.3184057,5.3184057 30.628106 0 1 4.80947,2.84749 l 2.57461,4.9096 c 0.94873,1.80914 3.37315,3.32373 5.41524,3.37812 5.87461,0.15647 17.61739,0.4437 26.82872,0.50739 5.29195,0.0366 10.76922,-0.0384 15.46805,-0.0147 2.01295,0.0101 3.8869,0.0326 5.57096,0.0465 3.62051,0.03 6.56199,2.84283 6.57054,6.46541 l 0.11238,47.62963 a 6.5438187,6.5438187 134.9324 0 1 -6.5438,6.55926 l -90.29007,0 a 6.5542385,6.5542385 45.022017 0 1 -6.55424,-6.55928 l 0.045,-58.53738 a 6.6881914,6.6881914 134.48649 0 1 6.56317,-6.68189 z"
         id="path17"
         sodipodi:nodetypes="cccsscccc"
         transform="matrix(-1.3056764,0,0,1.3959228,1578.0461,-432.54028)"
         inkscape:original-d="m 695.25634,703.39436 39.27214,-0.73421 5.81787,11.09423 c 0,0 17.7124,0.52117 30.52614,0.60977 5.29195,0.0366 10.76922,-0.0384 15.46805,-0.0147 5.33312,0.0269 9.69053,0.14014 12.12602,-0.0473 l 0.14334,60.74815 H 695.20127 Z"
         inkscape:path-effect="#path-effect18" /><path
         id="path18"
         style="display:inline;fill:#000000;fill-opacity:1;stroke:#000000;stroke-width:2.13521;stroke-dasharray:none;stroke-opacity:1;paint-order:markers fill stroke"
         inkscape:label="arriba"
         d="M 515.6703,8.1746487 A 74.644343,72.027209 0 0 0 480.12624,19.244076 L 110.63984,245.12159 A 86.70055,83.660709 0 0 0 70.353588,315.8091 v 390.56806 a 87.29832,84.23752 0 0 0 40.150782,70.9054 l 368.62828,228.23084 a 73.771333,71.184807 0 0 0 80.12087,-0.2615 L 744.96775,888.49989 H 569.09926 A 25.828844,28.041307 0 0 1 543.31063,860.3905 l 0.22584,-123.68134 -8.89732,6.01412 a 27.103001,26.600525 0 0 1 -30.71149,-0.0436 L 332.25944,626.66851 a 35.388858,34.732767 0 0 1 -15.3106,-28.63236 L 317.12951,414.606 a 33.776073,33.149883 0 0 1 15.76221,-28.02222 L 503.47602,281.0319 a 29.576649,29.028312 0 0 1 15.71705,-4.4452 29.576649,29.028312 0 0 1 15.76224,4.4452 l 171.62306,105.85694 a 33.691555,33.066934 0 0 1 15.76224,27.97863 l 0.0451,183.34301 a 35.318088,34.663309 0 0 1 -15.35574,28.58878 l -2.07754,1.39458 c 12.79876,-0.0353 23.91385,-0.0409 32.06641,-0.0436 8.06315,-0.003 17.61789,-6.28044 21.36257,-14.03293 l 10.16189,-21.04936 a 21.33234,23.159638 0 0 1 18.96887,-12.42042 l 137.75008,0.65372 a 26.023186,28.252295 0 0 1 25.92413,28.24011 l 0.0903,136.88624 a 88.436535,85.335827 0 0 0 10.65869,-40.26835 L 963.5161,316.33206 A 87.110528,84.056311 0 0 0 923.59123,245.38309 L 560.5181,19.549159 A 74.644343,72.027209 0 0 0 515.6703,8.1746487 Z" /><path
         style="display:inline;fill:#000000;fill-opacity:1;fill-rule:nonzero;stroke:none;stroke-width:12.9352;stroke-linecap:round;stroke-linejoin:miter;stroke-dasharray:none;stroke-opacity:1;paint-order:normal"
         d="m 703.46425,702.01282 27.77962,-0.006 a 5.2906652,5.2906652 31.821082 0 1 4.74227,2.94274 l 2.71872,5.4899 c 0.90657,1.83063 3.29682,3.36264 5.33891,3.41703 5.87461,0.15647 17.61739,0.4437 26.82872,0.50739 5.29195,0.0366 10.76922,-0.0384 15.46805,-0.0147 2.01295,0.0101 3.8869,0.0326 5.57096,0.0465 3.62051,0.03 6.55101,2.84284 6.54601,6.46542 l -0.0634,45.92258 a 6.5636469,6.5636469 135.06001 0 1 -6.56833,6.55458 l -88.49157,-0.0632 a 6.5519978,6.5519978 45.07275 0 1 -6.54731,-6.56396 l 0.1061,-58.13774 a 6.5726564,6.5726564 135.04619 0 1 6.57125,-6.56066 z"
         id="path19"
         sodipodi:nodetypes="cccsscccc"
         transform="matrix(-3.5483306,0,0,3.6605775,3400.6301,-1965.5845)"
         inkscape:original-d="m 696.90497,702.01421 37.62351,-0.008 5.81787,11.74799 c 0,0 17.7124,0.52117 30.52614,0.60977 5.29195,0.0366 10.76922,-0.0384 15.46805,-0.0147 5.33312,0.0269 9.69053,0.14014 12.12602,-0.0473 l -0.0815,59.04112 -101.61013,-0.0726 z"
         inkscape:path-effect="#path-effect25" /></g></g></svg>
