<?xml version="1.0" encoding="UTF-8" standalone="no"?>
<svg
   viewBox="2 2 144 144"
   version="1.1"
   id="svg1"
   sodipodi:docname="tab-icon.svg"
   inkscape:version="1.4.3 (0d15f75042, 2025-12-25)"
   inkscape:export-filename="../Documentos/test-blazepilot/blazepilot/blaze-app/src/ui/assets/icons/tab-icon.svg"
   inkscape:export-xdpi="96"
   inkscape:export-ydpi="96"
   width="144"
   height="144"
   xmlns:inkscape="http://www.inkscape.org/namespaces/inkscape"
   xmlns:sodipodi="http://sodipodi.sourceforge.net/DTD/sodipodi-0.dtd"
   xmlns="http://www.w3.org/2000/svg"
   xmlns:svg="http://www.w3.org/2000/svg">
  <defs
     id="defs1">
    <inkscape:path-effect
       effect="fillet_chamfer"
       id="path-effect6"
       is_visible="true"
       lpeversion="1"
       nodesatellites_param="F,0,1,1,0,0.71925794,0,1 @ F,0,0,1,0,0.71925794,0,1 @ F,0,1,1,0,0.71925794,0,1 @ F,0,1,1,0,0.71925794,0,1 | F,0,1,1,0,0.71925794,0,1 @ F,0,1,1,0,0.71925794,0,1 @ F,0,1,1,0,0.71925794,0,1 @ F,0,1,1,0,0.71925794,0,1 | F,0,1,1,0,0.71925794,0,1 @ F,0,1,1,0,0.71925794,0,1 @ F,0,1,1,0,0.71925794,0,1 @ F,0,1,1,0,0.71925794,0,1 | F,0,1,1,0,0.71925794,0,1 @ F,0,1,1,0,0.71925794,0,1 @ F,0,1,1,0,0.71925794,0,1 @ F,0,1,1,0,0.71925794,0,1"
       radius="0"
       unit="px"
       method="auto"
       mode="F"
       chamfer_steps="1"
       flexible="false"
       use_knot_distance="true"
       apply_no_radius="true"
       apply_with_radius="true"
       only_selected="false"
       hide_knots="false" />
  </defs>
  <sodipodi:namedview
     id="namedview1"
     pagecolor="#ffffff"
     bordercolor="#000000"
     borderopacity="0.25"
     inkscape:showpageshadow="2"
     inkscape:pageopacity="0.0"
     inkscape:pagecheckerboard="0"
     inkscape:deskcolor="#d1d1d1"
     inkscape:export-bgcolor="#ffffff00"
     inkscape:zoom="2.015625"
     inkscape:cx="47.875969"
     inkscape:cy="32.744186"
     inkscape:window-width="1914"
     inkscape:window-height="1028"
     inkscape:window-x="0"
     inkscape:window-y="0"
     inkscape:window-maximized="1"
     inkscape:current-layer="svg1">
    <inkscape:page
       x="0"
       y="0"
       width="144"
       height="144"
       id="page2"
       margin="0"
       bleed="0" />
  </sodipodi:namedview>
  <path
     d="M 2.7192579,2 H 6.2807421 A 0.71925794,0.71925794 45 0 1 7,2.7192579 L 7,6.2807421 A 0.71925794,0.71925794 135 0 1 6.2807421,7 L 2.7192579,7 A 0.71925794,0.71925794 45 0 1 2,6.2807421 V 2.7192579 A 0.71925794,0.71925794 135 0 1 2.7192579,2 Z m 7,0 H 13.280742 A 0.71925794,0.71925794 45 0 1 14,2.7192579 l 0,3.5614842 A 0.71925794,0.71925794 135 0 1 13.280742,7 L 9.7192579,7 A 0.71925794,0.71925794 45 0 1 9,6.2807421 V 2.7192579 A 0.71925794,0.71925794 135 0 1 9.7192579,2 Z m -7,7 H 6.2807421 A 0.71925794,0.71925794 45 0 1 7,9.7192579 L 7,13.280742 A 0.71925794,0.71925794 135 0 1 6.2807421,14 L 2.7192579,14 A 0.71925794,0.71925794 45 0 1 2,13.280742 V 9.7192579 A 0.71925794,0.71925794 135 0 1 2.7192579,9 Z m 7,0 H 13.280742 A 0.71925794,0.71925794 45 0 1 14,9.7192579 l 0,3.5614841 A 0.71925794,0.71925794 135 0 1 13.280742,14 L 9.7192579,14 A 0.71925794,0.71925794 45 0 1 9,13.280742 V 9.7192579 A 0.71925794,0.71925794 135 0 1 9.7192579,9 Z"
     fill="#000000"
     id="path1"
     style="fill:#000000;fill-opacity:1"
     inkscape:path-effect="#path-effect6"
     inkscape:original-d="M 2,2 H 7 V 7 H 2 Z m 7,0 h 5 V 7 H 9 Z M 2,9 h 5 v 5 H 2 Z m 7,0 h 5 v 5 H 9 Z"
     transform="matrix(11.339673,0,0,11.170543,-16.717384,-15.364344)" />
</svg>
